<?xml version="1.0" encoding="utf-8"?>
<svg version="1.1" xmlns="http://www.w3.org/2000/svg" xmlns:xlink="http://www.w3.org/1999/xlink" x="0px" y="0px"
	 viewBox="0 0 155.7688 73" style="enable-background:new 0 0 155.7688 73;" xml:space="preserve">
<style type="text/css">
	.st0{fill:url(#SVGID_1_);}
	.st1{fill:#B8E3FA;}
	.st2{fill:url(#SVGID_2_);}
	.st3{fill:#A5D9F1;}
	.st4{fill:#8FCEEF;}
	.st5{fill:#54AAD9;}
	.st8{fill:#3994C6;}
</style>
<g>
	<linearGradient id="SVGID_1_" gradientUnits="userSpaceOnUse" x1="77.8839" y1="49.9513" x2="77.8839" y2="-19.4447">
		<stop  offset="0" style="stop-color:#DAF2FF"/>
		<stop  offset="0.2662" style="stop-color:#D7F1FF"/>
		<stop  offset="0.4483" style="stop-color:#CEEDFD"/>
		<stop  offset="0.6052" style="stop-color:#BFE6FB"/>
		<stop  offset="0.7478" style="stop-color:#A9DDF8"/>
		<stop  offset="0.8796" style="stop-color:#8ED1F4"/>
		<stop  offset="1" style="stop-color:#6DC3F0"/>
	</linearGradient>
	<rect x="-0.0011" y="0.0149" class="st0" width="155.77" height="68"/>
	<path class="st1" d="M77.4655,27.6062c-0.0045,0.2038,2.6274,0.6062,3.9358,0.7677c3.0785,0.38,5.1366,0.2048,5.1509,0.4849
		c0.0198,0.3881-3.9214,0.8998-3.9094,1.3334c0.0174,0.6262,8.2674,0.5749,14.6602,0.5253c5.2836-0.041,7.9915-0.066,11.2262-0.2828
		c2.6908-0.1804,11.5716-0.7758,11.5696-1.3738C120.0946,27.7512,77.4835,26.7872,77.4655,27.6062z"/>
	<path class="st1" d="M47.4322,41.0729c0.0045,0.2038-2.6274,0.6062-3.9358,0.7677c-3.0785,0.38-5.1365,0.2048-5.1509,0.4849
		c-0.0198,0.3881,3.9214,0.8998,3.9094,1.3334c-0.0174,0.6262-8.2674,0.5749-14.6602,0.5253
		c-5.2836-0.041-7.9915-0.066-11.2262-0.2828c-2.6908-0.1804-11.5716-0.7758-11.5696-1.3738
		C4.8031,41.2179,47.4142,40.2538,47.4322,41.0729z"/>
	<linearGradient id="SVGID_2_" gradientUnits="userSpaceOnUse" x1="77.8839" y1="74.5994" x2="77.8839" y2="107.2113">
		<stop  offset="0" style="stop-color:#8FCEEF"/>
		<stop  offset="1" style="stop-color:#3994C6"/>
	</linearGradient>
	<path class="st3" d="M155.7688,70.7049v1.68h-155.77v-5.56c0.34-0.17,0.7599-0.36,1.27-0.51c0.99-0.31,1.8-0.35,2.56-0.37
		c1.03-0.02,1.8,0,2.4,0.04c1.5,0.08,1.93,0.22,2.54-0.14c0.39-0.22,0.82-0.65,1.46-2.98c0.02-0.08,0.05-0.16,0.07-0.25
		c0.78-2.95,0.51-3.6,1.1-6.55c0.43-2.13,1.01-3.92,1.7-6.1c1.12-3.55,1.36-3.35,2-5.7c0.7-2.55,0.63-3.96,1.4-6.3
		c0.48-1.44,1.09-2.67,1.45-3.4c0.4301-0.88,0.69-1.28,1.03-1.9c1.84-3.36,1.31-4.02,2.77-6.3c0.39-0.6,0.58-0.81,0.98-1.3
		c0.32-0.39,0.77-0.96,1.55-2.05c1.15-1.6,1.14-1.72,1.47-2.05c1.14-1.13,2.93-1.2,6.55-1.1c2.21,0.06,6.25,0.17,10.55,2.45
		c1.99,1.06,1.7,1.34,8.45,6.1c0.81,0.5699,2.23,1.56,4.3,2.4c1.27,0.51,1.67,0.52,3.05,1c1.61,0.56,2.86,1.23,5.3,2.55
		c4,2.16,4.82,2.95,6.45,2.75c1.03-0.13,1.15-0.5,2.4-0.55c1.96-0.08,2.42,0.79,3.95,0.5c0.62-0.12,0.55-0.26,2.7-1.25
		c1.36-0.63,1.51-0.78,1.95-0.85c1.12-0.18,1.96,0.3,2.95,0.75c1.06,0.48,2.25,0.8,4.63,1.45c2.61,0.71,4.86,0.89,6.17,1
		c2.56,0.21,3.03-0.01,4.52,0.45c0.99,0.31,1.61,0.67,2.81,0.77c1.29,0.1,2.15-0.17,2.7-0.27c2.31-0.4,4.45,1.41,6.45,2.9301
		c4.4,3.35,3.46,1.74,9.04,5.84c3.22,2.36,7.28,5.64,9.31,5.61c0.26-0.01,1.27-0.08,2.04,0.54c0.38,0.31,0.34,0.49,0.73,0.83
		c0.66,0.57,1.34,0.54,2.25,0.75c0.47,0.11,1.11,0.41,2.37,1.02c1.65,0.8,3,1.45,4.2,2.06c1.7,0.87,3.1,1.66,4.65,2.7
		c0.08,0.05,0.15,0.1,0.23,0.15c2.1,1.42,4.85,3.53,7.72,6.57c0.16,0.25,0.31,0.5,0.46,0.75
		C155.0088,69.4749,155.3888,70.0949,155.7688,70.7049z"/>
	<path class="st4" d="M146.5688,64.5149c-0.37,1.07-1.7599,3.44-17.0699,5.07c-27.57,2.93-29.64-4.03-48.9301-0.8
		c0,0-21.06,3.51-28.8,0c-0.87-0.4-2.11-1.24-4.92-2.47c-1.71-0.75-3.22-1.29-4.65-2.8c-0.7-0.74-1.25-1.34-1.2-2.1
		c0.13-1.87,3.77-2.91,4.25-3.05c1.5099-0.43,2.41-0.33,4.4-0.4c0,0,1.91-0.07,6.25-0.65c1.22-0.16,6.24-0.9,11.9-3.6
		c3.236-1.5437,3.8285-4.9057,5.73-4.57c1.2684,0.2239,1.8751,1.6115,3.37,1.42c0.7601-0.0974,0.8587-0.4889,2.2-0.85
		c0.9533-0.2567,1.6684-0.4492,2.35-0.15c1.0298,0.452,1.3609,1.7532,1.5,2.3c0.5339,2.0986-0.4098,3.7165,0.05,3.95
		c0.3338,0.1695,1.0667-0.5635,1.45-1.05c1.0797-1.3704,0.6715-2.4168,1.35-2.8c0.8378-0.4732,1.8862,0.8817,4.15,1.6
		c1.57,0.4982,1.3418-0.0693,4,0.35c2.0284,0.3199,3.3739,0.8341,6.35,1.175c0.9489,0.1087,1.1291,0.0927,1.15,0.025
		c0.1194-0.3865-4.7292-3.198-10.2-4.25c-0.8408-0.1617-2.5475-0.442-4.4-1.6c-1.6335-1.0211-1.3975-1.4851-2.7-2.35
		c-2.4929-1.6552-5.5877-1.4364-9.92-1.13c-0.975,0.069-1.7738,0.1617-2.3,0.23c-0.01,0-4.89,1.71-9.1,2.6
		c-1.74,0.37-3,0.4301-5.23,0.53c-1.44,0.07-1.92,0.03-6.95-0.15c0,0-3.21-0.12-9-1.08c-0.7-0.12-2.01-0.35-2.4-1.25
		c-0.29-0.6801,0.04-1.48,0.3-2.13c0.46-1.12,0.9-1.2,1.42-2.22c0.34-0.68,1-1.99,0.46-3c-0.58-1.09-2.37-1.43-3.5-0.97
		c-0.57,0.24-0.58,0.52-1.23,0.8c-0.84,0.36-1.64,0.24-2.63,0.04c-2.87-0.59-4.3-0.88-4.3-1.27c0-0.61,2.71-1.17,4.33-1.33
		c2.46-0.25,3.6-0.2,3.6-0.2c0.86,0.03,1.29,0.11,1.37-0.07c0.17-0.39-1.45-1.72-3.34-2.43c-0.48-0.18-0.99-0.33-4.1-0.7
		c-3.4301-0.41-3.83-0.35-4.5601-0.84c-0.71-0.46-1.7599-1.45-2.24-2.83c-0.26-0.76-0.25-1.34-0.8-2.27
		c-0.45-0.76-0.77-0.91-1.03-1.33c-0.16-0.26-0.2401-0.54-0.27-0.85c0.32-0.39,0.77-0.96,1.55-2.05c1.15-1.6,1.14-1.72,1.47-2.05
		c1.14-1.13,2.93-1.2,6.55-1.1c2.21,0.06,6.25,0.17,10.55,2.45c1.99,1.06,1.7,1.34,8.45,6.1c0.81,0.5699,2.23,1.56,4.3,2.4
		c1.27,0.51,1.67,0.52,3.05,1c1.61,0.56,2.86,1.23,5.3,2.55c4,2.16,4.82,2.95,6.45,2.75c1.03-0.13,1.15-0.5,2.4-0.55
		c1.96-0.08,2.42,0.79,3.95,0.5c0.62-0.12,0.55-0.26,2.7-1.25c1.36-0.63,1.51-0.78,1.95-0.85c1.12-0.18,1.96,0.3,2.95,0.75
		c1.06,0.48,2.25,0.8,4.63,1.45c2.61,0.71,4.86,0.89,6.17,1c2.56,0.21,3.03-0.01,4.52,0.45c0.99,0.31,1.61,0.67,2.81,0.77
		c1.29,0.1,2.15-0.17,2.7-0.27c2.31-0.4,4.45,1.41,6.45,2.9301c4.4,3.35,3.46,1.74,9.04,5.84c3.22,2.36,7.28,5.64,9.31,5.61
		c0.26-0.01,1.27-0.08,2.04,0.54c0.38,0.31,0.34,0.49,0.73,0.83c0.66,0.57,1.34,0.54,2.25,0.75c0.47,0.11,1.11,0.41,2.37,1.02
		c3.99,1.92,6.21,2.99,8.85,4.76c0.08,0.05,0.15,0.1,0.23,0.15C146.8089,62.6148,146.8789,63.6148,146.5688,64.5149z"/>
	<path class="st4" d="M19.7988,66.2649c-0.0724-0.3335,0.1312-0.6229,3.75-3.95c1.4992-1.3784,2.2668-2.0832,3.15-2.85
		c2.3793-2.0658,3.5689-3.0986,4.55-3.6c1.6291-0.8326,2.1897-0.6717,3.45-1.65c1.5224-1.1817,1.768-2.242,2.25-2.15
		c0.9011,0.172,1.6857,4.1913,0.4,7.75c-2.0517,5.679-8.3747,7.4146-8.9,7.55C24.5606,68.3675,20.0899,67.6052,19.7988,66.2649z"/>
	<path class="st5" d="M155.7688,63.2649v7.69c-42.59-0.02-85.18-0.03-127.78-0.05c-7.72,0-15.45-0.01-23.18-0.01h-2.38
		c0.02-0.84,0.05-1.69,0.08-2.53c0-0.23,0.01-0.45,0.02-0.68h2.85v-0.67h0.85v-4.15h6.22v2.48h0.95v-0.31h3.25v2.73h1.48v-2.86h0.9
		v-1.49h4.75v0.64h0.93v2.34h4.91v-0.52h2.98v0.65h0.97v-0.41h0.48v-0.67h0.58v0.66h0.56v-0.6801h0.5099v0.41h0.67v0.56h10.06v2.25
		h12.34v0.86h6v-2.36h3.38v-0.51h12.38v-7.1h10.3v5.83h12.32v-2.12h12.84v-3.93h4.46v8.43h8.4v-4.56h1.6v-0.91h1.95v-1.44h2.32
		v-0.85h4.02v-1.29h6.04v-0.61h4.57v1.03h2.23v0.9301h0.48v0.83h0.47v0.88h0.49v1.5
		C153.9389,63.2549,154.8488,63.2649,155.7688,63.2649z"/>
	<path class="st8" d="M155.7688,67.6649v5.1h-155.77v-4.72c0.18-0.01,0.38-0.02,0.59-0.03c1.49-0.05,1.72,0.1,1.83,0.23
		c0.04,0.04,0.07,0.08,0.09,0.12c0.17,0.29,0.03,0.6,0.35,0.9301c0.25,0.27,0.49,0.23,0.86,0.41c0.32,0.15,0.74,0.47,1.09,1.19v0.01
		h23.18c41.82,0,83.62,0,125.44-0.01c0.18-0.42,0.42-0.9,0.74-1.39c0.15-0.23,0.3-0.44,0.46-0.64
		C155.0088,68.3749,155.3988,67.9848,155.7688,67.6649z"/>
	<path class="st3" d="M85.5322,41.6149c-0.1928,0.2509,0.4589,1.1251,1.0667,1.6667c0.7151,0.6372,1.4348,0.8721,1.95,1.05
		c3.1989,1.1045,4.3874,2.0367,4.6333,1.7c0.2051-0.2808-0.452-1.1614-1.0667-1.7c-0.7643-0.6696-1.4513-0.8004-2.5167-1.15
		C86.9008,42.2961,85.7628,41.3149,85.5322,41.6149z"/>
	<path class="st3" d="M92.6989,42.0149c-0.0692,0.2261,0.5333,0.5965,1,0.8833c0.8285,0.5092,1.3693,0.6588,2.5167,1.0833
		c1.5778,0.5839,1.9456,0.8158,3,1.0333c0.6907,0.1425,1.4541,0.3,1.5833,0.05c0.1525-0.295-0.6257-1.065-1.3667-1.5333
		c-0.5443-0.344-0.757-0.3285-2.4833-0.9167c-1.274-0.4341-1.2984-0.4904-1.8-0.6C94.1569,41.798,92.7953,41.6996,92.6989,42.0149z"
		/>
</g>
</svg>